<?xml version="1.0" encoding="UTF-8" standalone="no"?>
<!-- Created with Inkscape (http://www.inkscape.org/) -->

<svg
   width="236.60402mm"
   height="142.32518mm"
   viewBox="0 0 236.60402 142.32518"
   version="1.1"
   id="svg2478"
   inkscape:version="1.1.2 (b8e25be833, 2022-02-05)"
   sodipodi:docname="Zeichnung3.svg"
   xmlns:inkscape="http://www.inkscape.org/namespaces/inkscape"
   xmlns:sodipodi="http://sodipodi.sourceforge.net/DTD/sodipodi-0.dtd"
   xmlns="http://www.w3.org/2000/svg"
   xmlns:svg="http://www.w3.org/2000/svg">
  <sodipodi:namedview
     id="namedview2480"
     pagecolor="#ffffff"
     bordercolor="#666666"
     borderopacity="1.0"
     inkscape:pageshadow="2"
     inkscape:pageopacity="0.0"
     inkscape:pagecheckerboard="0"
     inkscape:document-units="mm"
     showgrid="false"
     fit-margin-top="0"
     fit-margin-left="0"
     fit-margin-right="0"
     fit-margin-bottom="0"
     inkscape:zoom="0.77593294"
     inkscape:cx="358.92277"
     inkscape:cy="230.69004"
     inkscape:window-width="1920"
     inkscape:window-height="1017"
     inkscape:window-x="-8"
     inkscape:window-y="-8"
     inkscape:window-maximized="1"
     inkscape:current-layer="svg2478" />
  <defs
     id="defs2475" />
  <g
     inkscape:label="Ebene 1"
     inkscape:groupmode="layer"
     id="layer1"
     transform="translate(27.940354,-165.14146)" />
  <path
     id="Germany"
     style="fill:#45586c;fill-opacity:0.366795;stroke:#000000;stroke-width:0.264583;stroke-miterlimit:4;stroke-dasharray:none;stroke-opacity:1"
     d="m 0.15290239,49.53453 1.25677001,-0.42789 2.315105,-0.33072 1.785937,-1.52136 1.256771,0.33073 0.727604,1.5875 2.0505215,-0.33073 0.06615,-1.5875 1.9843751,0.13229 1.521354,2.11667 2.248958,0.33073 2.910416,0.59531 3.307292,0.33073 0.529167,0.99219 -0.79375,1.85208 2.182812,0.99219 0.79375,2.05052 1.984375,-1.05833 0.992187,-1.05834 -1.322916,-1.71979 h 1.190625 l 2.447396,1.38906 c 0,0 0.562239,0.16541 1.190625,0.30593 0.314192,0.0703 0.644922,0.1344 0.930174,0.16846 0.142629,0.017 0.273886,0.0263 0.386025,0.0253 0.112135,-10e-4 0.205155,-0.0123 0.271301,-0.0372 0.264583,-0.0992 0.644921,-0.31419 0.959114,-0.50436 0.314193,-0.19018 0.56224,-0.35554 0.56224,-0.35554 l -0.859896,3.10886 2.248958,0.59531 2.513542,1.5875 0.79375,-0.66146 c 0,0 1.058334,-2.84427 1.190625,-3.175 0.01654,-0.0413 0.05555,-0.0782 0.111623,-0.11162 0.05607,-0.0335 0.12919,-0.0636 0.212905,-0.0899 0.167433,-0.0527 0.378272,-0.092 0.584978,-0.12092 0.413411,-0.0579 0.810286,-0.0744 0.810286,-0.0744 l 1.653646,-1.38907 c 0,0 -0.446485,-0.34726 -0.901237,-0.7276 -0.227375,-0.19017 -0.456819,-0.38861 -0.633553,-0.55604 -0.176734,-0.16743 -0.300757,-0.30386 -0.317294,-0.37 -0.03307,-0.1323 -0.01654,-0.64493 0.0083,-1.12448 0.02479,-0.47956 0.05788,-0.92604 0.05788,-0.92604 l -1.918229,-1.78594 c 0,0 -0.264583,-0.3638 -0.578776,-0.77721 -0.314193,-0.41342 -0.677995,-0.87644 -0.876432,-1.07487 -0.04961,-0.0496 -0.116791,-0.0845 -0.196372,-0.10801 -0.07958,-0.0235 -0.171566,-0.0357 -0.270782,-0.0388 -0.198438,-0.006 -0.425816,0.0227 -0.64079,0.0641 -0.429947,0.0827 -0.810286,0.21498 -0.810286,0.21498 l -1.852083,1.05833 -0.264584,-2.3151 -2.182812,-0.59532 0.198437,-1.78593 -2.513541,-0.39688 -0.992188,0.66146 -1.984375,-0.0661 c 0,0 -0.51263,-0.29765 -1.033528,-0.64492 -0.260448,-0.17363 -0.522965,-0.35967 -0.724504,-0.5271 -0.100769,-0.0837 -0.186163,-0.16252 -0.248563,-0.23306 -0.0624,-0.0705 -0.101803,-0.13281 -0.110071,-0.18242 -0.0083,-0.0496 -0.04018,-0.0865 -0.08992,-0.11368 -0.04974,-0.0271 -0.117306,-0.0445 -0.196371,-0.0538 -0.158129,-0.0186 -0.362768,-0.006 -0.56534,0.0186 -0.405143,0.0496 -0.802018,0.14883 -0.802018,0.14883 l -0.595313,-1.25677 -1.785937,-0.72761 -1.256771,-1.38906 -1.587499,-0.46302 -0.198438,-1.65365 0.529167,-2.44739 -0.727604,-1.32292 1.918228,-1.78593 2.976563,-0.26459 1.719791,-1.45521 0.992188,-0.59531 1.521354,-0.26458 0.727604,-0.92604 1.5875,0.39687 1.653646,-2.11667 1.521354,-1.25677 0.06615,-2.97656 c 0,0 -1.256771,-0.52917 -1.521354,-0.66146 -0.06615,-0.0331 -0.132292,-0.10748 -0.194305,-0.2005 -0.06201,-0.093 -0.119888,-0.20464 -0.169497,-0.31213 -0.09922,-0.21497 -0.165365,-0.41341 -0.165365,-0.41341 l 0.992188,-0.66146 0.727604,0.52917 1.322917,-0.19844 0.926041,-0.85989 -0.330729,-1.12448 1.322917,-1.05834 0.595312,-1.25677 2.116667,-2.05052 -0.198438,-1.32291 -3.373424,-0.0656 -2.182812,0.26458 -3.439584,1.12448 -2.116666,0.59532 c 0,0 -1.008724,0.33073 -2.050521,0.65319 -0.520898,0.16122 -1.050065,0.32039 -1.465543,0.43511 -0.415479,0.11472 -0.717269,0.18499 -0.783415,0.16847 -0.03307,-0.008 -0.07364,0.005 -0.118856,0.0346 -0.04522,0.0298 -0.09509,0.0765 -0.147795,0.13384 -0.10542,0.11472 -0.221175,0.27389 -0.328662,0.43512 -0.214974,0.32246 -0.396875,0.65319 -0.396875,0.65319 l -0.264583,1.25677 -3.307292,-0.0662 -1.852083,0.92604 -2.116667,-0.0661 -0.926041,0.79375 -3.0757811,-0.0662 c 0,0 -0.115756,0.21498 -0.2728525,0.42995 -0.07855,0.10749 -0.167432,0.21497 -0.257349,0.29559 -0.04496,0.0403 -0.09005,0.0736 -0.134358,0.0971 -0.04431,0.0235 -0.08785,0.0372 -0.129191,0.0372 -0.33073,0 -1.289844,-0.0661 -1.289844,-0.0661 l -1.124479,0.99219 -2.612761,0.13229 0.496094,0.95912 0.926042,0.59531 0.23151,-0.92604 1.5875,-0.0992 -0.03307,1.98437 -1.81901,0.46302 -2.579688,-0.62838 -1.45520801,-0.66146 -0.264583,-1.09141 2.28203101,0.0331 0.03307,-2.61276 -1.85208301,-0.23151 -0.09922,0.79375 0.99218701,0.56224 -0.826823,0.62838 -0.89296801,0.10387 z" />
  <path
     id="EastGermany"
     style="fill:#45586c;fill-opacity:0.366795;stroke:#000000;stroke-width:0.264583;stroke-miterlimit:4;stroke-dasharray:none;stroke-opacity:1"
     d="m 75.691443,21.06081 0.150379,-1.35392 -1.122413,-0.81856 0.04651,-0.98185 -0.514181,-0.28112 0.04651,-1.7539 1.005623,-0.30385 -0.07028,-0.9586 -0.607714,-1.82418 0.912088,-0.63149 c 0,0 1.14591,-1.30956 1.286227,-1.37976 0.07016,-0.0351 -0.140438,-0.24581 -0.368454,-0.44751 -0.228012,-0.20171 -0.473871,-0.3942901 -0.473871,-0.3942901 l -1.777153,-1.05266 -0.725022,-0.25734 -0.140042,-0.81856 c 0,0 -0.982363,-0.42087 -1.075904,-0.46767 -0.04677,-0.0234 -0.455983,-0.006 -0.868164,-0.003 -0.412178,0.003 -0.827267,-0.009 -0.885732,-0.091 -0.11693,-0.16369 -1.05265,-0.81855 -1.05265,-0.81855 0,0 -0.818383,-0.18679 -1.215946,-0.42065 -0.397563,-0.23385 -1.847432,-1.23971 -1.847432,-1.23971 -3e-6,0 -0.07042,-1.09888 -0.04703,-1.2392 0.02339,-0.14031 -1.753899,-2.36213 -1.753899,-2.36213 L 64.125223,0.57684988 H 61.43598 l 0.02326,0.91209002 c 0,0 0.678508,0.0464 0.772046,0.0698 0.09355,0.0234 -0.117306,0.7953 -0.117306,0.7953 0,0 -0.86492,0.35088 -0.98185,0.35088 -0.116935,0 -0.163814,0.53795 -0.163814,0.53795 l -0.631486,0.72502 0.140041,1.44953 1.426787,0.21084 0.163814,-1.68414 0.65474,0.65526 0.350883,1.33274 -0.02376,0.79529 -0.584459,0.25735 v 2.36162 L 62.137764,10.09465 c 0,0 -1.520434,0.047 -1.684137,0.047 -0.08185,0 -0.380116,-0.0177 -0.649054,-0.0615 -0.268941,-0.0439 -0.508437,-0.1138701 -0.473356,-0.2191001 0.03508,-0.10522 -0.251489,-0.12851 -0.546737,-0.12558 -0.295249,0.003 -0.599448,0.032 -0.599448,0.032 0,0 -0.134425,-0.0994 -0.271817,-0.23099 -0.137393,-0.13155 -0.277694,-0.29513 -0.289388,-0.42375 -0.01169,-0.12865 0.228171,-0.17556 0.488341,-0.19017 0.26017,-0.0146 0.540658,0.003 0.610817,0.003 0.140317,0 0.327763,-0.8887 0.304374,-1.00563 -0.02339,-0.11693 0.888318,-0.39739 0.888318,-0.39739 0,0 0.725265,-1.16967 0.865579,-1.40353 0.07016,-0.11695 -0.257601,-0.12864 -0.602547,-0.1111 -0.344945,0.0175 -0.70745,0.0646 -0.70745,0.0646 0,0 -2.010712,2.03458 -2.197799,2.10478 -0.187089,0.0701 -1.005623,-0.094 -1.005623,-0.094 l -0.678511,0.98237 -0.935344,-0.0935 -0.234093,0.53796 c 0,0 -2.291821,0.0703 -2.572454,0.0703 -0.07016,0 -0.106608,0.18418 -0.121957,0.4604301 -0.01534,0.27625 -0.0094,0.64453 0.0052,1.01286 0.02923,0.73666 0.09353,1.4733 0.09353,1.4733 l 3.250965,0.047 0.04651,0.37414 -1.730645,0.16381 -0.187068,0.70125 -1.660364,0.39739 -1.450041,1.07591 -1.309481,0.39791 -0.608229,0.70124 -1.813843,-0.18138 c 0.06615,0.0331 -0.05581,0.19275 -0.117824,0.2775 -0.06201,0.0847 -0.169498,0.18811 -0.285253,0.29559 -0.23151,0.21498 -0.496094,0.44649 -0.496094,0.57878 0,0.13229 -0.363802,0.39687 -0.727604,0.62838 -0.363802,0.23151 -0.727604,0.42995 -0.727604,0.42995 0,0 -0.529167,0.51263 -1.058333,1.0666 -0.529167,0.55397 -1.058334,1.14929 -1.058334,1.31465 0,0.33073 -0.264583,2.05052 -0.264583,2.05052 l 4.431771,-0.0661 1.256771,1.52135 2.84427,-1.19062 1.719792,0.59531 0.661458,1.85208 3.108854,1.45521 1.521355,-1.45521 4.101041,0.19844 1.785938,-0.7276 5.027083,-0.26459 c 0,0 -0.03307,-0.19844 0.07441,-0.37207 0.05374,-0.0868 0.142626,-0.16743 0.288353,-0.21394 0.145728,-0.0465 0.348301,-0.0589 0.62942,-0.009 0.28112,0.0496 0.603581,0.0124 0.929143,-0.0713 0.325562,-0.0837 0.654222,-0.21394 0.947745,-0.35037 0.587039,-0.27277 1.033524,-0.57043 1.033524,-0.57043 l 1.322916,-0.92604 z" />
  <path
     id="Poland"
     style="fill:#45586c;fill-opacity:0.366795;stroke:#000000;stroke-width:0.264583;stroke-miterlimit:4;stroke-dasharray:none;stroke-opacity:1"
     d="m 38.583631,58.43269 1.653646,-0.0656 0.661458,1.45521 1.322917,1.32292 v 2.3151 l 2.645833,1.45521 3.902605,-1.65365 2.381249,2.38125 2.050521,0.46302 1.5875,-0.59531 3.175,-0.66146 1.918229,0.99219 2.513542,-0.92604 3.638021,-0.33073 2.38125,1.12448 5.159375,0.79375 -2.248959,-5.22552 4.431771,0.13229 0.264584,-0.59531 -0.463021,-2.51354 3.241145,-0.99219 2.116151,-0.23048 0.561205,-0.74827 -1.403014,-1.68414 0.46767,-3.18017 -1.590082,-2.52594 -0.187069,-2.71301 1.215946,-1.96422 1.994193,-0.8444 c 0,0 0.181901,-0.33073 0.363803,-0.71933 0.181901,-0.38861 0.363802,-0.83509 0.363802,-1.0666 0,-0.46303 0.06614,-3.04271 0.06614,-3.04271 0,0 -0.926041,-0.23151 -1.885156,-0.4961 -0.959114,-0.26458 -1.951302,-0.56224 -2.083594,-0.69453 -0.06614,-0.0661 -0.06201,-0.2191 -0.0186,-0.41134 0.04341,-0.19224 0.12609,-0.42375 0.217041,-0.64699 0.181901,-0.44649 0.396875,-0.8599 0.396875,-0.8599 l 2.116666,-0.19843 c 0,0 0.330729,-1.05834 0.330729,-1.5875 0,-0.1323 -0.144695,-0.24392 -0.365868,-0.34004 -0.221176,-0.0961 -0.518832,-0.17673 -0.824757,-0.24701 -0.611851,-0.14056 -1.256773,-0.23978 -1.389065,-0.339 -0.264583,-0.19844 -0.79375,-1.4552 -0.79375,-1.4552 l 1.124479,-1.38907 1.322917,0.13229 0.264583,-2.38125 -2.116666,-1.4552 0.79375,-2.31511 -4.167188,-2.84427 -2.38125,1.19063 -1.322916,0.92604 c 0,0 -0.446485,0.29765 -1.033529,0.57051 -0.293523,0.13642 -0.622183,0.26665 -0.947745,0.35036 -0.325562,0.0837 -0.648023,0.12092 -0.929143,0.0713 -0.28112,-0.0496 -0.483693,-0.0372 -0.62942,0.009 -0.145727,0.0465 -0.234611,0.12712 -0.288353,0.21394 -0.107487,0.17362 -0.07441,0.37206 -0.07441,0.37206 l -5.027084,0.26458 -1.785937,0.72761 -4.101042,-0.19844 -1.521354,1.45521 -3.108854,-1.45521 -0.661458,-1.85209 -1.719792,-0.59531 -2.844271,1.19063 -1.256771,-1.52136 -4.43177,0.0662 c 0,0 0.264583,-1.71979 0.264583,-2.05052 0,-0.16537 0.529167,-0.76068 1.058333,-1.31465 0.529167,-0.55397 1.058334,-1.0666 1.058334,-1.0666 0,0 0.363802,-0.19844 0.727604,-0.42995 0.363802,-0.23151 0.727604,-0.4961 0.727604,-0.62839 0,-0.13228 0.264583,-0.3638 0.496094,-0.57877 0.115755,-0.10749 0.223242,-0.21084 0.285252,-0.29559 0.06201,-0.0848 0.07855,-0.1509 0.0124,-0.18397 -0.132292,-0.0661 0.314193,-0.38034 0.79375,-0.71107 0.479557,-0.33073 0.992187,-0.67799 0.992187,-0.81028 0,-0.13229 0.529167,-0.23151 1.058334,-0.29766 0.529166,-0.0661 1.058333,-0.0992 1.058333,-0.0992 l 0.595313,-0.85989 h -2.248959 l -2.844271,1.38906 -2.315104,1.05833 -3.042708,-1.52135 -1.124479,-3.175 -1.984376,-0.13281 0.198438,1.32292 -2.116667,2.05052 -0.595312,1.25677 -1.322917,1.05833 0.330729,1.12448 -0.926041,0.8599 -1.322917,0.19843 -0.727604,-0.52916 -0.992188,0.66146 c 0,0 0.06615,0.19843 0.165365,0.41341 0.04961,0.10748 0.107497,0.2191 0.169497,0.31212 0.06201,0.093 0.128159,0.16744 0.194305,0.20051 0.264583,0.13229 1.521354,0.66146 1.521354,0.66146 l -0.06615,2.97656 -1.521354,1.25677 -1.653646,2.11667 -1.5875,-0.39688 -0.727604,0.92604 -1.521354,0.26459 -0.992188,0.59531 -1.719791,1.45521 -2.976563,0.26458 -1.918228,1.78594 0.727604,1.32291 -0.529167,2.4474 0.198438,1.65365 1.587499,0.46302 1.256771,1.38906 1.785937,0.7276 0.595313,1.25677 c 0,0 0.396875,-0.0992 0.802018,-0.14882 0.202572,-0.0248 0.407211,-0.0372 0.56534,-0.0186 0.07906,0.009 0.146632,0.0266 0.196371,0.0537 0.04974,0.0271 0.08165,0.0641 0.08992,0.11369 0.0083,0.0496 0.04767,0.11188 0.110071,0.18242 0.0624,0.0705 0.147794,0.14934 0.248564,0.23306 0.201538,0.16743 0.464055,0.35346 0.724503,0.5271 0.520898,0.34726 1.033528,0.64492 1.033528,0.64492 l 1.984375,0.0661 0.992188,-0.66146 2.513542,0.39687 -0.198438,1.78594 2.182812,0.59531 0.264584,2.31511 1.852083,-1.05834 c 0,0 0.380339,-0.13229 0.810287,-0.21497 0.214974,-0.0413 0.442351,-0.0703 0.640789,-0.0641 0.09921,0.003 0.191201,0.0152 0.270782,0.0388 0.07958,0.0235 0.146762,0.0584 0.196372,0.108 0.198437,0.19844 0.562239,0.66146 0.876432,1.07487 0.314193,0.41341 0.578776,0.77721 0.578776,0.77721 l 1.918229,1.78594 c 0,0 -0.03307,0.44649 -0.05788,0.92604 -0.02479,0.47956 -0.04134,0.99219 -0.0083,1.12448 0.01654,0.0662 0.14056,0.20257 0.317293,0.37 0.176734,0.16744 0.406178,0.36588 0.633553,0.55604 0.454753,0.38034 0.901237,0.72761 0.901237,0.72761 l -1.653646,1.38906 c 0,0 -0.396875,0.0165 -0.810286,0.0744 -0.206706,0.0289 -0.417545,0.0682 -0.584978,0.12092 -0.08371,0.0264 -0.156848,0.0564 -0.212905,0.0899 -0.05607,0.0335 -0.09509,0.0703 -0.111622,0.11163 -0.132292,0.33073 -1.190625,3.175 -1.190625,3.175 z" />
  <path
     id="Crimea"
     style="fill:#45586c;fill-opacity:0.366795;stroke:#000000;stroke-width:0.264583;stroke-miterlimit:4;stroke-dasharray:none;stroke-opacity:1"
     d="m 168.29561,95.27644 -0.52916,1.12447 v 1.25678 l -1.52136,1.05833 -1.5875,0.39687 -5.68854,2.91042 0.13229,0.92604 3.57188,0.26459 0.92604,0.59531 1.12448,0.66146 c 0,0 1.25677,0.0661 1.71979,0.0661 0.11576,0 0.25632,0.091 0.40204,0.22738 0.14573,0.13642 0.29662,0.31833 0.43305,0.50023 0.27285,0.3638 0.48783,0.7276 0.48783,0.7276 l 0.26458,1.52135 -1.19062,0.8599 -0.79375,1.5875 1.32291,0.79375 1.65365,0.79375 1.78594,0.19844 1.65364,-0.79375 1.32292,-0.99219 1.52135,-1.65365 1.5875,0.19844 0.72761,-0.59531 3.0427,-0.0661 1.7198,-2.24895 2.57968,-0.19844 0.79375,0.33073 c 0,0 1.52136,0.7276 1.78594,0.7276 0.26458,0 4.10104,-0.19844 4.10104,-0.19844 l 0.52917,-1.4552 -0.0661,-1.52136 0.66146,-0.99219 c 0,0 -3.63802,-0.26458 -4.10104,-0.26458 -0.23151,0 -0.34727,0.14883 -0.40514,0.29766 -0.0579,0.14883 -0.0579,0.29765 -0.0579,0.29765 l -1.5875,0.52917 -2.51354,0.19844 -1.52136,-0.52917 -3.0427,0.0661 0.66145,-0.59532 1.32292,-0.79375 c 0,0 -0.85994,-2.05051 -0.92604,-2.3151 -0.0331,-0.13229 -0.23151,-0.16537 -0.42168,-0.16537 -0.19017,0 -0.37207,0.0331 -0.37207,0.0331 l -0.79375,-1.65365 -1.85208,-1.25677 0.0661,0.66146 1.25677,1.25677 0.46302,1.45521 1.71979,1.05833 -0.46302,0.59531 -1.25677,-0.52916 -0.99218,-1.5875 -2.57969,-0.66146 -1.5875,-1.52135 -1.05834,-0.26459 -2.3151,-0.26458 z" />
  <path
     id="path19768"
     style="fill:#0d4d90;fill-opacity:0.366795;stroke:#1c33f0;stroke-width:0.264583;stroke-miterlimit:4;stroke-dasharray:none;stroke-opacity:1"
     d="m 215.25885,85.15637 c -0.26458,0 -2.77812,0.13229 -2.77812,0.13229 l -0.66146,0.66146 h -0.99219 l -0.39687,0.66146 -2.97656,-0.13229 -1.12448,0.52916 -3.04271,-0.13229 -0.19844,-0.59531 -2.51354,0.7276 -1.25677,1.12448 -2.3151,0.39688 -1.91823,1.05833 c 0,0 -2.91042,0.46302 -3.175,0.46302 -0.2646,0 -1.52136,0.79375 -1.52136,0.79375 l -2.57969,-0.33073 -0.92604,0.99219 -1.38906,-0.13229 -0.39687,1.05833 -1.78594,0.33073 -1.32292,1.19063 -1.65364,-0.19844 -0.39688,0.92604 -1.45521,-0.19844 -0.19844,0.79375 -5.02708,-0.13229 -0.26458,-0.66146 -1.25677,0.92605 -2.84427,-0.59532 -0.59532,0.46302 2.11667,1.05834 2.3151,0.26458 1.05834,0.26458 1.5875,1.52136 2.57969,0.66146 0.99218,1.5875 1.25677,0.52916 0.46302,-0.59531 -1.71979,-1.05833 -0.46302,-1.45521 -1.25677,-1.25677 -0.0661,-0.66146 1.85208,1.25677 0.79375,1.65365 c 0,0 0.1819,-0.0331 0.37207,-0.0331 0.19017,0 0.3886,0.0331 0.42168,0.16537 0.0661,0.26459 0.92604,2.3151 0.92604,2.3151 l -1.32292,0.79375 -0.66145,0.59531 3.0427,-0.0661 1.52136,0.52917 2.51354,-0.19844 1.5875,-0.52917 c 0,0 0,-0.14882 0.0579,-0.29766 0.0579,-0.14883 0.17363,-0.29765 0.40514,-0.29765 0.46302,0 4.10104,0.26458 4.10104,0.26458 l -0.66146,0.99219 0.0661,1.52135 -0.52917,1.45521 c 0,0 -3.83646,0.19844 -4.10104,0.19844 -0.26458,0 -1.78594,-0.7276 -1.78594,-0.7276 l -0.79375,-0.33073 -2.57968,0.19843 -1.7198,2.24896 -3.0427,0.0661 -0.72761,0.59531 -1.5875,-0.19844 -1.52135,1.65365 -1.32292,0.99219 -1.65364,0.79375 -1.78594,-0.19844 -1.65365,-0.79375 -1.32291,-0.79375 0.79375,-1.5875 1.19062,-0.8599 -0.26458,-1.52135 c 0,0 -0.21498,-0.36381 -0.48783,-0.72761 -0.13643,-0.1819 -0.28732,-0.3638 -0.43305,-0.50022 -0.14572,-0.13643 -0.28628,-0.22738 -0.40204,-0.22738 -0.46302,0 -1.71979,-0.0661 -1.71979,-0.0661 l -1.12448,-0.66145 -0.92604,-0.59532 -3.57188,-0.26458 -0.13229,-0.92604 5.68854,-2.91042 1.5875,-0.39687 1.52136,-1.05834 v -1.25677 l -1.85209,-0.0661 -1.12448,-0.92604 -1.5875,0.92604 -6.41614,-0.26459 -1.78594,-1.25677 -2.77812,-0.52916 1.32291,-0.92605 1.85209,-0.85989 2.71198,-0.52917 1.71979,-0.59531 -0.0661,-1.25677 -1.65364,0.79375 -1.85209,0.66146 -1.85208,-0.39688 c 0,0 -0.0662,-0.19844 -0.11576,-0.44648 -0.0496,-0.24805 -0.0827,-0.5457 -0.0165,-0.74414 0.0661,-0.19844 -0.0331,-0.94258 -0.14883,-1.63711 -0.11576,-0.69453 -0.24805,-1.33946 -0.24805,-1.33946 l -0.7276,-0.59531 c 0,0 0.0827,-0.24804 0.12402,-0.49609 0.0207,-0.12403 0.031,-0.24805 0.0155,-0.34107 -0.0155,-0.093 -0.0568,-0.15503 -0.13952,-0.15503 -0.33073,0 -1.5875,-0.0661 -1.5875,-0.0661 l 0.85989,1.78594 0.72761,2.44739 -0.39688,1.98438 -1.91823,-0.52917 -0.46302,-1.45521 -1.25677,1.38906 -1.98437,0.59532 -2.51354,-0.19844 c 0,0 -0.34727,0.19844 -0.69454,0.44648 -0.34726,0.24805 -0.69453,0.54571 -0.69453,0.74414 0,0.39688 0.0661,1.19063 0,1.45521 -0.0661,0.26458 -1.5875,1.7198 -1.91823,1.98438 -0.16536,0.13229 -0.46302,0.39687 -0.74414,0.69453 -0.28112,0.29766 -0.5457,0.62839 -0.64492,0.89297 -0.0992,0.26458 -0.21497,0.49609 -0.35553,0.68626 -0.14056,0.19017 -0.30592,0.339 -0.50436,0.43822 -0.19844,0.0992 -0.66146,0.13229 -1.11622,0.14882 -0.45475,0.0165 -0.90123,0.0165 -1.0666,0.0496 -0.16536,0.0331 -0.8599,-0.14883 -1.51308,-0.27285 -0.3266,-0.062 -0.64286,-0.10955 -0.87747,-0.10852 -0.23461,10e-4 -0.38757,0.0506 -0.38757,0.18294 0,0.52917 -0.46302,2.3151 -0.46302,2.3151 0,0 1.12448,0.79376 1.38906,0.8599 0.13229,0.0331 0.29766,0.33072 0.42995,0.62011 0.13229,0.2894 0.23151,0.57051 0.23151,0.57051 0,0 -0.46301,1.12448 -0.72761,1.38906 -0.13228,0.13229 -0.44648,0.24805 -0.71933,0.38034 -0.13643,0.0662 -0.26252,0.13643 -0.35037,0.21498 -0.0879,0.0786 -0.13746,0.16536 -0.12092,0.26458 0.0661,0.39687 0.33073,2.3151 0.33073,2.3151 0,0 -0.24805,0.0661 -0.52917,0.16537 -0.28112,0.0992 -0.59531,0.23151 -0.7276,0.3638 -0.1323,0.13229 -0.79375,0.14884 -1.42214,0.13229 -0.62838,-0.0165 -1.2237,-0.0661 -1.2237,-0.0661 l -1.25677,-0.72761 0.26459,-1.45521 c 0,0 -0.34727,0.0165 -0.7028,0.0661 -0.35554,0.0496 -0.71934,0.13227 -0.75241,0.26458 -0.0331,0.13229 -0.38035,0.3142 -0.678,0.51263 -0.14882,0.0992 -0.28525,0.20257 -0.3638,0.30593 -0.0785,0.10335 -0.0992,0.2067 -0.0165,0.30592 0.16536,0.19844 0.57877,0.44649 0.95084,0.64492 0.37207,0.19844 0.7028,0.34727 0.7028,0.34727 l -0.33073,1.32292 c 0,0 -0.92604,1.52135 -1.19062,1.78593 -0.1323,0.13229 -0.52917,0.34727 -0.89297,0.57051 -0.3638,0.22325 -0.69453,0.45475 -0.69453,0.62012 0,0.33072 -0.0661,2.51354 -0.0661,2.51354 l -0.0661,2.4474 c 0,0 0.26458,1.91823 0.26458,2.18281 0,0.26458 -0.59531,1.05833 -0.59531,1.05833 0,0 -1.12448,0.33073 -1.7198,0.33073 h -2.38125 l -0.33072,1.65365 c 0,0 -0.26459,0.0496 -0.52917,0.13229 -0.26458,0.0827 -0.52917,0.19844 -0.52917,0.33073 v 2.64583 l 0.0662,1.25677 h -2.11667 l -1.45521,1.85209 2.18282,0.52916 0.39687,1.45521 0.79375,1.5875 c 0,0 0.1819,0.0165 0.37207,0.0661 0.19017,0.0496 0.3886,0.13226 0.42168,0.26458 0.0662,0.26458 0.59531,0.99219 0.59531,0.99219 l -0.46302,0.85989 0.39688,1.12448 c 0,0 0.99218,0.8599 1.05833,1.12448 0.0661,0.26458 0.92604,1.19063 0.92604,1.19063 l 1.52136,0.0661 c 0,0 0.31419,0 0.66145,0.0331 0.34727,0.0331 0.72761,0.0992 0.8599,0.23151 0.26458,0.26458 1.38906,0.66145 1.38906,0.66145 0,0 0.39688,0.0165 0.82683,0.0579 0.42994,0.0413 0.89296,0.10745 1.02526,0.2067 0.13228,0.0992 0.39687,0.11575 0.62838,0.10747 0.23151,-0.008 0.42995,-0.0413 0.42995,-0.0413 l 3.9026,0.72761 5.68855,0.26458 4.69635,0.66146 2.05052,-0.13229 2.97656,-1.71979 1.32292,-0.72761 2.18281,-0.66146 2.4474,-1.5875 c 0,0 0.5457,-0.31419 1.24023,-0.63664 0.34727,-0.16123 0.73174,-0.32454 1.10381,-0.45167 0.37207,-0.12713 0.73174,-0.21807 1.02939,-0.2346 0.59532,-0.0331 1.25678,-0.0992 1.90997,-0.19844 0.65319,-0.0992 1.29811,-0.23151 1.86035,-0.39688 1.12448,-0.33073 2.05052,-0.85989 2.3151,-0.92604 0.13229,-0.033 1.48828,-0.23151 2.95176,-0.41341 1.46348,-0.1819 3.03444,-0.34726 3.59668,-0.31419 0.28112,0.0166 0.58704,0.0992 0.894,0.21497 0.30696,0.11576 0.61495,0.26459 0.9002,0.41341 0.57051,0.29766 1.05007,0.59532 1.24851,0.62839 0.39687,0.0661 2.11666,0 2.11666,0 l 2.4474,-1.19063 0.66146,-0.7276 1.19062,1.25677 0.26459,2.11667 4.03489,0.85989 1.78594,-0.46302 1.91823,-0.26458 0.66146,2.44739 c 0,0 2.05052,1.38907 2.3151,1.38907 0.26458,0 2.11667,-0.39688 2.11667,-0.39688 l 0.39687,-0.46302 3.77032,0.92604 c 0,0 0.0331,0.38034 0.13229,0.76068 0.0496,0.19016 0.11575,0.38034 0.20257,0.52298 0.0868,0.14261 0.1943,0.2377 0.32659,0.2377 h 2.51355 l 1.38906,0.13229 2.71198,1.12448 c 0,0 0.59531,-0.0827 1.22369,-0.14055 0.62839,-0.0579 1.28985,-0.091 1.42214,0.008 0.13229,0.0992 0.90951,0.16536 1.65365,0.20669 0.74414,0.0413 1.4552,0.0579 1.4552,0.0579 l 1.78594,-0.66146 1.52136,-1.05833 2.64583,0.33073 c 0,0 1.32291,5e-5 1.5875,0.0661 0.26458,0.0661 1.38906,0.66146 1.71979,0.72761 0.33073,0.0661 2.11667,0.46302 2.11667,0.46302 0,0 1.4552,-0.33073 1.71979,-0.33073 0.26458,0 1.38906,-0.39688 1.38906,-0.39688 l 3.30729,-1.4552 c 0,0 0.33073,-0.14883 0.71107,-0.28941 0.38034,-0.14054 0.81029,-0.27283 1.00872,-0.23976 0.19844,0.0331 1.05834,-0.38034 1.86862,-0.80201 0.81029,-0.42169 1.57097,-0.85164 1.57097,-0.85164 l 2.57969,-0.92604 0.13229,-2.97656 -0.39688,-2.84427 -1.38906,-2.57969 -0.46302,-1.91823 -1.85208,-0.66146 -1.38907,-0.46302 -0.0661,-0.99219 -1.78594,-0.39687 -0.7276,-0.92604 -1.78594,0.26458 -1.5875,-1.12448 h -0.72761 l -1.19062,-1.19062 -1.52136,-0.33073 -2.18281,-1.98438 -1.85208,-1.32291 -1.19063,-0.92605 c 0,0 -0.0827,-0.33072 -0.19843,-0.66145 -0.11576,-0.33073 -0.26459,-0.66146 -0.39688,-0.66146 -0.26458,0 -0.66146,-0.0661 -0.92604,-0.13229 -0.26458,-0.0661 -1.91823,-1.12448 -1.91823,-1.12448 0,0 -0.19844,-0.0992 -0.40514,-0.23151 -0.20671,-0.13229 -0.42168,-0.29766 -0.45476,-0.42995 -0.033,-0.1323 -0.42994,-0.41341 -0.81855,-0.66146 -0.38861,-0.24805 -0.76895,-0.46302 -0.76895,-0.46302 0,0 -0.99218,-0.1323 -1.71979,-0.19844 -0.3638,-0.0331 -0.92604,-0.19844 -1.39733,-0.35553 -0.47129,-0.15709 -0.85163,-0.30593 -0.85163,-0.30593 l -2.18281,-2.38125 -1.05833,-0.66145 -0.39688,0.59531 -2.44739,-0.19844 -1.05833,-1.98437 -0.92605,-0.99219 -4.69635,-0.66146 -0.52917,-1.25677 1.71979,-1.32292 7.01146,0.39688 0.59532,-1.32292 c 0,0 -0.0496,-0.26458 -0.1571,-0.52917 -0.0537,-0.13229 -0.12196,-0.26458 -0.20567,-0.3638 -0.0837,-0.0992 -0.18294,-0.16536 -0.29869,-0.16536 -0.46303,0 -0.8599,0.0661 -0.8599,0.0661 l 3.24115,-3.43958 c 0,0 0.1819,-0.34726 0.39687,-0.69453 0.21497,-0.34727 0.46303,-0.69453 0.59531,-0.69453 0.2646,0 2.11667,-0.13229 2.11667,-0.13229 l 0.39688,0.99218 1.71979,-0.33073 -0.39688,-1.12447 -1.25677,-0.46303 -2.84427,-1.5875 -1.45521,-0.33072 -0.7276,-1.65365 c 0,0 2.51354,-0.33072 2.77812,-0.39688 0.26459,-0.0661 1.12448,-0.66145 1.12448,-0.66145 l 1.38906,0.79375 1.7198,-0.52917 -1.45521,-0.59531 -0.0661,-0.66146 3.10886,-0.79375 4.23333,-1.52136 z" />
  <path
     id="path23417"
     style="fill:#45586c;fill-opacity:0.366795;stroke:#000000;stroke-width:0.264583;stroke-miterlimit:4;stroke-dasharray:none;stroke-opacity:1"
     d="m 210.49665,112.47435 0.0661,-1.98437 -0.7276,-0.82683 -0.1323,-0.89296 1.62058,-2.38125 -1.02526,-2.77813 0.92604,-1.05833 -1.02526,-1.45521 -1.32292,0.49609 -1.52135,-0.76067 0.42995,-3.96875 -0.39688,-0.99219 c 0,0 -1.85207,0.13229 -2.11667,0.13229 -0.13228,0 -0.38034,0.34726 -0.59531,0.69453 -0.21497,0.34727 -0.39687,0.69453 -0.39687,0.69453 l -3.24115,3.43959 c 0,0 0.39687,-0.0661 0.8599,-0.0661 0.11575,0 0.21497,0.0661 0.29869,0.16536 0.0837,0.0992 0.15193,0.23151 0.20567,0.36381 0.10748,0.26458 0.1571,0.52916 0.1571,0.52916 l -0.59532,1.32292 -7.01146,-0.39688 -1.71979,1.32292 0.52917,1.25677 4.69635,0.66146 0.92605,0.99219 1.05833,1.98437 2.44739,0.19844 0.39688,-0.59531 1.05833,0.66146 2.18282,2.38125 c 0,0 0.38033,0.14883 0.85162,0.30592 0.47129,0.15709 1.03353,0.32244 1.39733,0.35553 0.72761,0.0661 1.71979,0.19844 1.71979,0.19844 z" />
</svg>
