<svg width="298" height="298" viewBox="0 0 298 298" fill="none" xmlns="http://www.w3.org/2000/svg">
<g filter="url(#filter0_d_0_1)">
<path d="M4 138.507L6.64334 162.313L32.0194 173.675C27.6139 177.282 18.1683 185.037 15.6307 187.201C13.0931 189.366 21.6223 209.745 26.2041 219.664H75.8989L97.0457 225.075C91.2303 231.567 79.4939 244.877 79.071 246.175C78.648 247.474 76.7801 268.358 75.8989 278.638C83.3003 274.851 99.9005 265.328 107.09 257.537C114.28 249.746 122.422 263.669 125.594 271.604L153.085 290C165.773 284.59 191.466 273.336 192.735 271.604C194.321 269.44 232.914 261.325 237.143 257.537C241.372 253.75 275.207 239.683 277.85 238.06C279.965 236.761 286.838 220.205 290.01 212.09C282.256 202.531 266.854 182.873 267.277 180.709C267.806 178.004 292.124 138.507 293.71 136.343C294.979 134.612 291.772 108.209 290.01 95.2239L241.901 87.6493C237.319 72.1393 228.367 40.5784 229.213 38.4142C230.059 36.25 210.886 29.2164 201.193 25.9701L153.085 28.6754L120.836 0L91.2303 28.6754H63.7396L52.1089 60.056L54.2235 82.7799L47.3508 126.063L4 138.507Z" fill="url(#paint0_radial_0_1)" shape-rendering="crispEdges"/>
</g>
<path d="M215 163L207 158.5L205 161.5L214 164.5L215 163Z" fill="#D9D9D9"/>
<path d="M205 133L201 130L197.5 133.5L201 134.715L204 144.5H209.5L205 133Z" fill="#D9D9D9"/>
<path d="M177 138.5C175.167 136.5 171.5 132.4 171.5 132L173.5 129.5L181 138.5L183 145L187.5 147L186 150L180.5 147.5L177 138.5Z" fill="#D9D9D9"/>
<path d="M166 117.5L168 116.5L174.5 116L179 120.5L172 126.5L165.5 122L166 117.5Z" fill="#D9D9D9"/>
<path d="M179.5 129L182 123.5L190 130.5L186 134.5L179.5 129Z" fill="#D9D9D9"/>
<path d="M198.684 140.47L194.61 144.931L189.159 135.805L194.197 133.234L198.684 140.47Z" fill="#D9D9D9"/>
<path d="M199 128.5L181.5 112.5L178.5 116.5L195.5 132L199 128.5Z" fill="#D9D9D9"/>
<path d="M128 126L122.5 121.5H132L128 126Z" fill="#D9D9D9"/>
<path d="M131 118.5C132.667 114.833 136 107.4 136 107L151.5 112L150 120L139.5 119.5V127L131 118.5Z" fill="#D9D9D9"/>
<path d="M170.5 106.5C167.5 106 161.3 104.9 160.5 104.5L159 109.5L170.5 106.5Z" fill="#D9D9D9"/>
<path d="M139 149L124 154.5L126.5 157.5L140 152.5L139 149Z" fill="#D9D9D9"/>
<path d="M152.5 160.5L150 150.5L145 152.5L148 161.5L152.5 160.5Z" fill="#D9D9D9"/>
<path d="M157.5 135.5L152 137.5L156.5 141V138H161.5L162.5 137L157.5 135.5Z" fill="#D9D9D9"/>
<path d="M153.5 146.5L156 144V145H164V147H153.5V146.5Z" fill="#D9D9D9"/>
<path d="M125 140L127.5 137.5L129.5 139L126.5 141.5L125 140Z" fill="#D6D6D6"/>
<path d="M128 142.5L129 143.5C130.214 143.045 132.616 142.175 133.338 142.023L132 140.5L128 142.5Z" fill="#D6D6D6"/>
<path d="M169 130.5L163 128L165.5 124L171 127.5L169 130.5Z" fill="#D9D9D9"/>
<path d="M187.719 137.289L190.694 143.068L186.205 144.515L184.256 138.293L187.719 137.289Z" fill="#D9D9D9"/>
<path d="M178 128L179.5 124.5L178 123L175 125.5L178 128Z" fill="#D9D9D9"/>
<path d="M146.081 122.08L147.426 125.642L149.547 125.683L149.976 121.802L146.081 122.08Z" fill="#D9D9D9"/>
<path d="M162.5 111.5L159 127.5L162 128L165 115L168 114L167 110.5L162.5 111.5Z" fill="#D9D9D9"/>
<path d="M193.18 156.169L177.975 150.082L176.988 152.959L189.317 158.059L189.809 161.182L193.426 160.772L193.18 156.169Z" fill="#D9D9D9"/>
<path d="M207.383 181.854L206.847 165.485L203.816 165.737L204.1 179.075L189 181L190.5 184L207.383 181.854Z" fill="#D9D9D9"/>
<path d="M207.324 156.301L220.81 165.595L222.408 163.007L211.51 155.311L218.932 142.021L215.628 141.446L207.324 156.301Z" fill="#D9D9D9"/>
<path d="M228.803 177.052L241.954 167.29L240.021 164.942L229.218 172.771L226.3 171.554L224.754 174.85L228.803 177.052Z" fill="#D9D9D9"/>
<path d="M116.5 117.5L128.5 93.5L158.5 75L168.5 50L201.5 42" stroke="#828282"/>
<path d="M56 211C57.6 211 75.3333 196.667 84 189.5L103 172.5L121.5 153L149 144.5" stroke="#828282"/>
<path d="M116.5 117.5C111.167 122.667 100.1 132.8 100.5 134C100.9 135.2 100.667 149.5 100.5 156.5L108 169L127 181.5H145L157 191L169.5 183L181 179L202.5 176V162L211.5 145C210.5 140.833 207.9 132.2 205.5 131C203.1 129.8 195.833 123.5 192.5 120.5L179 107L166.5 104L150 100L128.5 93.5" stroke="#828282"/>
<rect x="129" y="173" width="15" height="7" fill="#D9D9D9"/>
<rect x="154.782" y="171" width="7.10233" height="7" transform="rotate(55.6865 154.782 171)" fill="#D9D9D9"/>
<path d="M118.5 174C115.833 172.167 110.4 168.5 110 168.5L122.5 155L125.5 158C122.833 160.667 117.5 166.1 117.5 166.5C117.5 166.9 123.5 171 126.5 173V179.5L118.5 174Z" fill="#D9D9D9"/>
<path d="M178.008 160.954C179.259 163.939 181.844 169.962 182.181 170.179L164.364 174.768L163.314 169.931C168.992 169.422 175.807 167.148 176.023 166.811C176.24 166.475 172.18 160.771 170.74 157.466L174.257 152L178.008 160.954Z" fill="#D9D9D9"/>
<path d="M189.244 114.08C186.89 111.859 182.085 107.401 181.689 107.34L196.115 95.9198L198.618 99.345C195.574 101.57 189.469 106.12 189.408 106.515C189.346 106.911 194.645 111.884 197.303 114.321L196.304 120.744L189.244 114.08Z" fill="#D9D9D9"/>
<path d="M64 104L96.5 115.5L116.5 118L132.5 132L150 145L154 160.5L168.5 183.5L190 191.5V203L220 215L236 234.5" stroke="#828282"/>
<rect x="101.5" y="175.5" width="14" height="6" fill="#D9D9D9" stroke="#BCBABA"/>
<rect x="129.5" y="183.5" width="14" height="6" fill="#D9D9D9" stroke="#BCBABA"/>
<rect x="125" y="182" width="15" height="7" transform="rotate(89.7186 125 182)" fill="#D9D9D9"/>
<rect x="214.61" y="166.549" width="14" height="6" transform="rotate(90.4353 214.61 166.549)" fill="#D9D9D9" stroke="#BCBABA"/>
<rect x="105" y="130.525" width="15" height="5.65563" transform="rotate(-44.5618 105 130.525)" fill="#D9D9D9"/>
<rect x="103" y="135" width="5" height="14" fill="#D9D9D9"/>
<rect x="93" y="134" width="5" height="14" fill="#D9D9D9"/>
<rect x="117.846" y="100" width="5" height="14" transform="rotate(24.682 117.846 100)" fill="#D9D9D9"/>
<rect x="153.906" y="112" width="5" height="14" transform="rotate(11.9816 153.906 112)" fill="#D9D9D9"/>
<rect x="205.099" y="147.286" width="5" height="14" transform="rotate(91.1708 205.099 147.286)" fill="#D9D9D9"/>
<rect x="217.073" y="119.554" width="3.73166" height="14" transform="rotate(91.1708 217.073 119.554)" fill="#D9D9D9"/>
<rect x="223.073" y="125.286" width="3.73166" height="14" transform="rotate(91.1708 223.073 125.286)" fill="#D9D9D9"/>
<rect x="127" y="99.7388" width="5" height="14" transform="rotate(-71.3978 127 99.7388)" fill="#D9D9D9"/>
<rect x="143" y="104.739" width="5" height="14" transform="rotate(-71.3978 143 104.739)" fill="#D9D9D9"/>
<rect x="123.846" y="105" width="5" height="14" transform="rotate(24.682 123.846 105)" fill="#D9D9D9"/>
<rect x="103" y="158.386" width="4" height="7" transform="rotate(-36.612 103 158.386)" fill="#D9D9D9"/>
<rect x="103" y="154.999" width="4" height="7" transform="rotate(-89.0424 103 154.999)" fill="#D9D9D9"/>
<rect x="111.947" y="159.862" width="4" height="11.458" transform="rotate(-137.462 111.947 159.862)" fill="#D9D9D9"/>
<rect x="119" y="128.074" width="4" height="11.458" transform="rotate(-50.2304 119 128.074)" fill="#D9D9D9"/>
<rect x="115" y="135.074" width="4" height="9.42181" transform="rotate(-50.2304 115 135.074)" fill="#D9D9D9"/>
<rect x="111" y="140.074" width="4" height="9.42181" transform="rotate(-50.2304 111 140.074)" fill="#D9D9D9"/>
<path d="M208.257 182.668L208.927 187.623L195.053 189.5L194.383 184.545L208.257 182.668Z" fill="#D9D9D9"/>
<path d="M209.374 188.623L210.044 193.578L203 193.578L196.17 195.455L195.5 190.5L209.374 188.623Z" fill="#D9D9D9"/>
<rect x="224" y="190" width="5" height="14" fill="#D9D9D9"/>
<rect x="216" y="170" width="5" height="14" fill="#D9D9D9"/>
<rect x="237" y="183.074" width="4" height="9.42181" transform="rotate(-50.2304 237 183.074)" fill="#D9D9D9"/>
<rect x="233" y="188.074" width="4" height="9.42181" transform="rotate(-50.2304 233 188.074)" fill="#D9D9D9"/>
<rect x="210" y="181.731" width="4" height="9.42181" transform="rotate(-10.5322 210 181.731)" fill="#D9D9D9"/>
<rect x="202.225" y="210.537" width="5" height="14" transform="rotate(113.298 202.225 210.537)" fill="#D9D9D9"/>
<rect x="197.41" y="221.529" width="4" height="9.42181" transform="rotate(63.0679 197.41 221.529)" fill="#D9D9D9"/>
<rect x="194.4" y="215.878" width="4" height="9.42181" transform="rotate(63.0679 194.4 215.878)" fill="#D9D9D9"/>
<rect x="127.077" y="149.389" width="4" height="9.42181" transform="rotate(-105.622 127.077 149.389)" fill="#D9D9D9"/>
<rect x="150.077" y="136.389" width="4" height="9.42181" transform="rotate(-105.622 150.077 136.389)" fill="#D9D9D9"/>
<rect x="167.523" y="151.286" width="4" height="9.42181" transform="rotate(-112.383 167.523 151.286)" fill="#D9D9D9"/>
<rect x="155.062" y="158.146" width="4" height="9.42181" transform="rotate(-90.8894 155.062 158.146)" fill="#D9D9D9"/>
<rect x="169.523" y="180.286" width="4" height="9.42181" transform="rotate(-112.383 169.523 180.286)" fill="#D9D9D9"/>
<rect x="159.523" y="165.286" width="4" height="9.42181" transform="rotate(-112.383 159.523 165.286)" fill="#D9D9D9"/>
<rect x="166.24" y="167.778" width="3.25591" height="7.2662" transform="rotate(-112.383 166.24 167.778)" fill="#D9D9D9"/>
<rect x="169.838" y="113.886" width="4" height="9.42181" transform="rotate(-102.099 169.838 113.886)" fill="#D9D9D9"/>
<path d="M109 135.5L117 128.5L110 138.5L109 135.5Z" fill="#D6D6D6"/>
<rect x="128" y="62.5252" width="15" height="5.65563" transform="rotate(-44.5618 128 62.5252)" fill="#D9D9D9"/>
<rect x="138" y="90.0531" width="15" height="5.65563" transform="rotate(-32.4711 138 90.0531)" fill="#D9D9D9"/>
<rect x="134" y="72.0745" width="4" height="9.42181" transform="rotate(-50.2304 134 72.0745)" fill="#D9D9D9"/>
<rect x="87" y="72.0745" width="4" height="9.42181" transform="rotate(-50.2304 87 72.0745)" fill="#D9D9D9"/>
<rect x="114" y="91.0745" width="4" height="9.42181" transform="rotate(-50.2304 114 91.0745)" fill="#D9D9D9"/>
<rect x="81" y="87.0745" width="4" height="4.18972" transform="rotate(-50.2304 81 87.0745)" fill="#D9D9D9"/>
<rect x="82" y="49.0745" width="4" height="4.18972" transform="rotate(-50.2304 82 49.0745)" fill="#D9D9D9"/>
<rect x="216" y="51.0745" width="4" height="4.18972" transform="rotate(-50.2304 216 51.0745)" fill="#D9D9D9"/>
<rect x="219" y="65.0745" width="4" height="4.18972" transform="rotate(-50.2304 219 65.0745)" fill="#D9D9D9"/>
<rect x="165" y="79.0745" width="4" height="4.18972" transform="rotate(-50.2304 165 79.0745)" fill="#D9D9D9"/>
<rect x="157" y="82.0745" width="4" height="4.18972" transform="rotate(-50.2304 157 82.0745)" fill="#D9D9D9"/>
<rect x="184" y="80.0745" width="4" height="4.18972" transform="rotate(-50.2304 184 80.0745)" fill="#D9D9D9"/>
<rect x="195" y="68.0745" width="4" height="4.18972" transform="rotate(-50.2304 195 68.0745)" fill="#D9D9D9"/>
<rect x="149" y="65.0745" width="4" height="4.18972" transform="rotate(-50.2304 149 65.0745)" fill="#D9D9D9"/>
<rect x="128" y="82.0745" width="4" height="4.18972" transform="rotate(-50.2304 128 82.0745)" fill="#D9D9D9"/>
<rect x="258" y="102.074" width="4" height="4.18972" transform="rotate(-50.2304 258 102.074)" fill="#D9D9D9"/>
<rect x="229" y="99.0745" width="4" height="4.18972" transform="rotate(-50.2304 229 99.0745)" fill="#D9D9D9"/>
<rect x="237" y="120.074" width="11.0611" height="11.6106" transform="rotate(-50.2304 237 120.074)" fill="#D9D9D9"/>
<rect x="127.507" y="246.805" width="11.0611" height="11.6106" transform="rotate(-93.1419 127.507 246.805)" fill="#D9D9D9"/>
<rect x="214" y="97.0745" width="4" height="4.18972" transform="rotate(-50.2304 214 97.0745)" fill="#D9D9D9"/>
<rect x="199" y="94.6373" width="4" height="4.18972" transform="rotate(-24.1625 199 94.6373)" fill="#D9D9D9"/>
<rect x="68" y="64.0745" width="4" height="4.18972" transform="rotate(-50.2304 68 64.0745)" fill="#D9D9D9"/>
<rect x="81" y="64.0745" width="4" height="4.18972" transform="rotate(-50.2304 81 64.0745)" fill="#D9D9D9"/>
<rect x="110.699" y="35.4007" width="4" height="4.18972" transform="rotate(-115.131 110.699 35.4007)" fill="#D9D9D9"/>
<rect x="140.699" y="40.4007" width="4" height="4.18972" transform="rotate(-115.131 140.699 40.4007)" fill="#D9D9D9"/>
<rect x="140.699" y="40.4007" width="4" height="4.18972" transform="rotate(-115.131 140.699 40.4007)" fill="#D9D9D9"/>
<rect x="195.973" y="41.899" width="4" height="4.18972" transform="rotate(-104.078 195.973 41.899)" fill="#D9D9D9"/>
<rect x="27" y="145.074" width="4" height="4.18972" transform="rotate(-50.2304 27 145.074)" fill="#D9D9D9"/>
<rect x="33" y="163.074" width="4" height="4.18972" transform="rotate(-50.2304 33 163.074)" fill="#D9D9D9"/>
<rect x="47" y="140.074" width="4" height="4.18972" transform="rotate(-50.2304 47 140.074)" fill="#D9D9D9"/>
<rect x="39" y="154.074" width="4" height="4.18972" transform="rotate(-50.2304 39 154.074)" fill="#D9D9D9"/>
<rect x="64" y="120.074" width="4" height="4.18972" transform="rotate(-50.2304 64 120.074)" fill="#D9D9D9"/>
<rect x="33" y="190.074" width="4" height="4.18972" transform="rotate(-50.2304 33 190.074)" fill="#D9D9D9"/>
<rect x="81" y="207.074" width="4" height="4.18972" transform="rotate(-50.2304 81 207.074)" fill="#D9D9D9"/>
<rect x="92" y="210.074" width="4" height="4.18972" transform="rotate(-50.2304 92 210.074)" fill="#D9D9D9"/>
<rect x="110" y="187.074" width="4" height="4.18972" transform="rotate(-50.2304 110 187.074)" fill="#D9D9D9"/>
<rect x="103" y="185.074" width="4" height="4.18972" transform="rotate(-50.2304 103 185.074)" fill="#D9D9D9"/>
<rect x="127.007" y="194.007" width="4" height="4.18972" transform="rotate(-90.1021 127.007 194.007)" fill="#D9D9D9"/>
<rect x="133.007" y="194.007" width="4" height="4.18972" transform="rotate(-90.1021 133.007 194.007)" fill="#D9D9D9"/>
<rect x="127.007" y="199.007" width="4" height="4.18972" transform="rotate(-90.1021 127.007 199.007)" fill="#D9D9D9"/>
<rect x="133.007" y="199.007" width="4" height="4.18972" transform="rotate(-90.1021 133.007 199.007)" fill="#D9D9D9"/>
<rect x="86" y="257.074" width="4" height="4.18972" transform="rotate(-50.2304 86 257.074)" fill="#D9D9D9"/>
<rect x="89" y="246.074" width="4" height="4.18972" transform="rotate(-50.2304 89 246.074)" fill="#D9D9D9"/>
<rect x="148" y="269.074" width="4" height="4.18972" transform="rotate(-50.2304 148 269.074)" fill="#D9D9D9"/>
<rect x="159" y="249.074" width="4" height="4.18972" transform="rotate(-50.2304 159 249.074)" fill="#D9D9D9"/>
<rect x="123" y="227.074" width="4" height="4.18972" transform="rotate(-50.2304 123 227.074)" fill="#D9D9D9"/>
<rect x="119" y="209.074" width="4" height="4.18972" transform="rotate(-50.2304 119 209.074)" fill="#D9D9D9"/>
<rect x="78" y="171.074" width="4" height="4.18972" transform="rotate(-50.2304 78 171.074)" fill="#D9D9D9"/>
<rect x="93.8623" y="150.809" width="4" height="4.18972" transform="rotate(-0.751588 93.8623 150.809)" fill="#D9D9D9"/>
<rect x="82" y="151.074" width="4" height="4.18972" transform="rotate(-50.2304 82 151.074)" fill="#D9D9D9"/>
<rect x="86" y="162.074" width="4" height="4.18972" transform="rotate(-50.2304 86 162.074)" fill="#D9D9D9"/>
<path d="M111.5 119C107.167 118.667 98.4 118 98 118L101.5 129L111.5 119Z" fill="#D9D9D9"/>
<rect x="96.1169" y="161.04" width="4" height="4.18972" transform="rotate(-29.5292 96.1169 161.04)" fill="#D9D9D9"/>
<rect x="99" y="166.592" width="4" height="4.18972" transform="rotate(-40.3936 99 166.592)" fill="#D9D9D9"/>
<rect x="64" y="156.074" width="4" height="4.18972" transform="rotate(-50.2304 64 156.074)" fill="#D9D9D9"/>
<rect x="85.4262" y="139.231" width="4" height="4.18972" transform="rotate(-110.889 85.4262 139.231)" fill="#D9D9D9"/>
<rect x="79" y="129.074" width="4" height="4.18972" transform="rotate(-50.2304 79 129.074)" fill="#D9D9D9"/>
<rect x="91" y="127.074" width="4" height="4.18972" transform="rotate(-50.2304 91 127.074)" fill="#D9D9D9"/>
<rect x="88.5491" y="125.035" width="4" height="7.37835" transform="rotate(-50.2304 88.5491 125.035)" fill="#D9D9D9"/>
<rect x="90.2115" y="118.98" width="4" height="4.18972" transform="rotate(-68.7088 90.2115 118.98)" fill="#D9D9D9"/>
<rect x="85" y="116.727" width="4" height="4.18972" transform="rotate(-68.7088 85 116.727)" fill="#D9D9D9"/>
<rect x="91" y="111.727" width="4" height="4.18972" transform="rotate(-68.7088 91 111.727)" fill="#D9D9D9"/>
<rect x="146" y="191.074" width="4" height="4.18972" transform="rotate(-50.2304 146 191.074)" fill="#D9D9D9"/>
<rect x="162" y="192.074" width="4" height="4.18972" transform="rotate(-50.2304 162 192.074)" fill="#D9D9D9"/>
<rect x="214" y="221.074" width="4" height="4.18972" transform="rotate(-50.2304 214 221.074)" fill="#D9D9D9"/>
<rect x="197" y="252.074" width="4" height="4.18972" transform="rotate(-50.2304 197 252.074)" fill="#D9D9D9"/>
<rect x="178" y="240.074" width="4" height="4.18972" transform="rotate(-50.2304 178 240.074)" fill="#D9D9D9"/>
<rect x="161" y="223.074" width="4" height="4.18972" transform="rotate(-50.2304 161 223.074)" fill="#D9D9D9"/>
<rect x="168" y="211.074" width="4" height="4.18972" transform="rotate(-50.2304 168 211.074)" fill="#D9D9D9"/>
<rect x="148" y="214.074" width="4" height="4.18972" transform="rotate(-50.2304 148 214.074)" fill="#D9D9D9"/>
<rect x="271" y="211.074" width="4" height="4.18972" transform="rotate(-50.2304 271 211.074)" fill="#D9D9D9"/>
<rect x="262" y="156.94" width="4" height="4.18972" transform="rotate(-13.5858 262 156.94)" fill="#D9D9D9"/>
<rect x="257" y="157.94" width="4" height="4.18972" transform="rotate(-13.5858 257 157.94)" fill="#D9D9D9"/>
<rect x="251" y="159.94" width="4" height="4.18972" transform="rotate(-13.5858 251 159.94)" fill="#D9D9D9"/>
<rect x="274" y="101.94" width="4" height="4.18972" transform="rotate(-13.5858 274 101.94)" fill="#D9D9D9"/>
<rect x="120" y="16.9396" width="4" height="4.18972" transform="rotate(-13.5858 120 16.9396)" fill="#D9D9D9"/>
<rect x="203" y="43.9396" width="4" height="4.18972" transform="rotate(-13.5858 203 43.9396)" fill="#D9D9D9"/>
<rect x="197" y="44.9396" width="4" height="4.18972" transform="rotate(-13.5858 197 44.9396)" fill="#D9D9D9"/>
<rect x="190" y="46.9396" width="4" height="4.18972" transform="rotate(-13.5858 190 46.9396)" fill="#D9D9D9"/>
<rect x="159" y="88.9396" width="4" height="4.18972" transform="rotate(-13.5858 159 88.9396)" fill="#D9D9D9"/>
<rect x="165" y="87.9396" width="4" height="4.18972" transform="rotate(-13.5858 165 87.9396)" fill="#D9D9D9"/>
<rect x="172" y="94.9396" width="4" height="4.18972" transform="rotate(-13.5858 172 94.9396)" fill="#D9D9D9"/>
<rect x="275.865" y="132" width="4" height="4.18972" transform="rotate(11.9122 275.865 132)" fill="#D9D9D9"/>
<rect x="249.865" y="134" width="4" height="4.18972" transform="rotate(11.9122 249.865 134)" fill="#D9D9D9"/>
<rect x="212" y="134.229" width="4" height="4.18972" transform="rotate(-17.8996 212 134.229)" fill="#D9D9D9"/>
<rect x="268.865" y="117" width="4" height="4.18972" transform="rotate(11.9122 268.865 117)" fill="#D9D9D9"/>
<rect x="266.418" y="116.484" width="6.50016" height="4.18972" transform="rotate(11.9122 266.418 116.484)" fill="#D9D9D9"/>
<rect x="266.418" y="116.484" width="6.50016" height="4.18972" transform="rotate(11.9122 266.418 116.484)" fill="#D9D9D9"/>
<rect x="254" y="221.074" width="4" height="4.18972" transform="rotate(-50.2304 254 221.074)" fill="#D9D9D9"/>
<rect x="248" y="189.074" width="4" height="4.18972" transform="rotate(-50.2304 248 189.074)" fill="#D9D9D9"/>
<rect x="223" y="180.074" width="4" height="4.18972" transform="rotate(-50.2304 223 180.074)" fill="#D9D9D9"/>
<rect x="217" y="186.745" width="3.76655" height="5.97241" transform="rotate(-11.407 217 186.745)" fill="#D9D9D9"/>
<rect x="208" y="199.649" width="8.45459" height="8.48512" transform="rotate(-41.9272 208 199.649)" fill="#D9D9D9"/>
<rect x="193" y="201.451" width="4.89405" height="10.5571" transform="rotate(-65.4327 193 201.451)" fill="#D9D9D9"/>
<rect x="227.002" y="219.658" width="4" height="12.2231" transform="rotate(-41.9781 227.002 219.658)" fill="#D9D9D9"/>
<path d="M132 67.5L140 60.5L133 70.5L132 67.5Z" fill="#D6D6D6"/>
<path d="M109 150V141C111.333 142.833 115.6 146.6 116 147C116.4 147.4 114.5 149.167 113.5 150H109Z" fill="#D6D6D6"/>
<path d="M124.5 134L119 130L118.5 129.5L118 131L123.5 135.5L124.5 134Z" fill="#D6D6D6"/>
<path d="M136 136.5L131.5 133.5L129 136C130.5 137 133.6 139 134 139C134.5 139 135.5 141.5 136 141.5C136.4 141.5 139.5 140.5 141 140L136 136.5Z" fill="#D6D6D6"/>
<rect x="141.06" y="152.354" width="4" height="9.42181" transform="rotate(-105.372 141.06 152.354)" fill="#D9D9D9"/>
<rect x="135.06" y="160.354" width="4" height="9.42181" transform="rotate(-105.372 135.06 160.354)" fill="#D9D9D9"/>
<rect x="136.06" y="165.354" width="4" height="9.42181" transform="rotate(-105.372 136.06 165.354)" fill="#D9D9D9"/>
<rect x="132.808" y="161.409" width="2.84445" height="2.99496" transform="rotate(-170.854 132.808 161.409)" fill="#D9D9D9"/>
<rect x="127.808" y="163.409" width="2.84445" height="2.99496" transform="rotate(-170.854 127.808 163.409)" fill="#D9D9D9"/>
<rect x="131.808" y="165.409" width="2.84445" height="2.99496" transform="rotate(-170.854 131.808 165.409)" fill="#D9D9D9"/>
<rect x="201.5" y="170.034" width="2.84445" height="2.99496" transform="rotate(-179.213 201.5 170.034)" fill="#D9D9D9"/>
<rect x="186.844" y="171.034" width="2.84445" height="2.99496" transform="rotate(-179.213 186.844 171.034)" fill="#D9D9D9"/>
<rect x="200.844" y="166.034" width="2.84445" height="2.99496" transform="rotate(-179.213 200.844 166.034)" fill="#D9D9D9"/>
<rect x="197.09" y="174.984" width="2.84445" height="6.39583" transform="rotate(175.088 197.09 174.984)" fill="#D9D9D9"/>
<rect x="189.992" y="168.208" width="5.04977" height="6.39583" transform="rotate(-101.326 189.992 168.208)" fill="#D9D9D9"/>
<rect x="193.204" y="175.843" width="2.84445" height="6.52085" transform="rotate(170.068 193.204 175.843)" fill="#D9D9D9"/>
<rect x="185.127" y="165.023" width="2.84445" height="6.52085" transform="rotate(157.457 185.127 165.023)" fill="#D9D9D9"/>
<rect x="189.318" y="176.95" width="2.84445" height="2.99496" transform="rotate(170.068 189.318 176.95)" fill="#D9D9D9"/>
<rect x="185.318" y="176.95" width="5.0792" height="2.99496" transform="rotate(170.068 185.318 176.95)" fill="#D9D9D9"/>
<rect x="201.092" y="174.137" width="2.84445" height="2.99496" transform="rotate(-179.213 201.092 174.137)" fill="#D9D9D9"/>
<rect x="126.808" y="167.409" width="2.84445" height="2.99496" transform="rotate(-170.854 126.808 167.409)" fill="#D9D9D9"/>
<rect x="130.808" y="169.409" width="2.84445" height="2.99496" transform="rotate(-170.854 130.808 169.409)" fill="#D9D9D9"/>
<rect x="122.808" y="167.409" width="2.84445" height="2.99496" transform="rotate(-170.854 122.808 167.409)" fill="#D9D9D9"/>
<rect x="122.808" y="167.409" width="2.84445" height="2.99496" transform="rotate(-170.854 122.808 167.409)" fill="#D9D9D9"/>
<rect x="212.808" y="108.409" width="2.84445" height="2.99496" transform="rotate(-170.854 212.808 108.409)" fill="#D9D9D9"/>
<rect x="207.808" y="110.409" width="2.84445" height="2.99496" transform="rotate(-170.854 207.808 110.409)" fill="#D9D9D9"/>
<rect x="211.808" y="112.409" width="2.84445" height="2.99496" transform="rotate(-170.854 211.808 112.409)" fill="#D9D9D9"/>
<rect x="206.808" y="114.409" width="2.84445" height="2.99496" transform="rotate(-170.854 206.808 114.409)" fill="#D9D9D9"/>
<rect x="210.808" y="116.409" width="2.84445" height="2.99496" transform="rotate(-170.854 210.808 116.409)" fill="#D9D9D9"/>
<rect x="202.808" y="114.409" width="2.84445" height="2.99496" transform="rotate(-170.854 202.808 114.409)" fill="#D9D9D9"/>
<rect x="105.854" y="115.141" width="2.84445" height="2.99496" transform="rotate(-77.1412 105.854 115.141)" fill="#D9D9D9"/>
<rect x="104.182" y="110.022" width="2.84445" height="2.99496" transform="rotate(-77.1412 104.182 110.022)" fill="#D9D9D9"/>
<rect x="101.927" y="113.884" width="2.84445" height="2.99496" transform="rotate(-77.1412 101.927 113.884)" fill="#D9D9D9"/>
<rect x="100.255" y="108.765" width="2.84445" height="2.99496" transform="rotate(-77.1412 100.255 108.765)" fill="#D9D9D9"/>
<rect x="98" y="112.627" width="2.84445" height="2.99496" transform="rotate(-77.1412 98 112.627)" fill="#D9D9D9"/>
<rect x="100.514" y="104.773" width="2.84445" height="2.99496" transform="rotate(-77.1412 100.514 104.773)" fill="#D9D9D9"/>
<rect x="109" y="101.773" width="2.84445" height="2.99496" transform="rotate(-77.1412 109 101.773)" fill="#D9D9D9"/>
<rect x="105" y="91.7731" width="2.84445" height="2.99496" transform="rotate(-77.1412 105 91.7731)" fill="#D9D9D9"/>
<rect x="97" y="96.7731" width="2.84445" height="2.99496" transform="rotate(-77.1412 97 96.7731)" fill="#D9D9D9"/>
<rect x="76" y="104.773" width="2.84445" height="2.99496" transform="rotate(-77.1412 76 104.773)" fill="#D9D9D9"/>
<rect x="99" y="63.7731" width="2.84445" height="2.99496" transform="rotate(-77.1412 99 63.7731)" fill="#D9D9D9"/>
<rect width="2.85731" height="3.24502" transform="matrix(0.704026 -0.710175 0.735388 0.677646 95 172.029)" fill="#D9D9D9"/>
<rect width="2.85731" height="3.24502" transform="matrix(0.704026 -0.710175 0.735388 0.677646 79 196.029)" fill="#D9D9D9"/>
<rect width="2.85731" height="3.24502" transform="matrix(0.704026 -0.710175 0.735388 0.677646 108 197.029)" fill="#D9D9D9"/>
<rect width="2.85731" height="3.24502" transform="matrix(0.704026 -0.710175 0.735388 0.677646 82 185.029)" fill="#D9D9D9"/>
<rect width="2.85731" height="3.24502" transform="matrix(0.704026 -0.710175 0.735388 0.677646 90 187.374)" fill="#D9D9D9"/>
<rect width="2.85731" height="3.24502" transform="matrix(0.704026 -0.710175 0.735388 0.677646 96.3707 182.029)" fill="#D9D9D9"/>
<rect x="127" y="169.217" width="1.92721" height="2.33884" transform="rotate(121.345 127 169.217)" fill="#D9D9D9"/>
<rect x="130.418" y="170.098" width="1.92721" height="2.33884" transform="rotate(92.4103 130.418 170.098)" fill="#D9D9D9"/>
<rect x="134.418" y="169.098" width="1.92721" height="2.33884" transform="rotate(92.4103 134.418 169.098)" fill="#D9D9D9"/>
<rect x="148.418" y="164.098" width="1.92721" height="2.33884" transform="rotate(92.4103 148.418 164.098)" fill="#D9D9D9"/>
<rect x="142.418" y="170.098" width="1.92721" height="2.33884" transform="rotate(92.4103 142.418 170.098)" fill="#D9D9D9"/>
<rect x="136.06" y="170.354" width="4" height="9.42181" transform="rotate(-105.372 136.06 170.354)" fill="#D9D9D9"/>
<rect x="157.153" y="189.443" width="4" height="11.3802" transform="rotate(-122.568 157.153 189.443)" fill="#D9D9D9"/>
<rect x="153" y="152" width="4" height="9.42181" transform="rotate(-89.1825 153 152)" fill="#D9D9D9"/>
<rect x="158.028" y="143.897" width="4.86856" height="4.98885" transform="rotate(-90.3239 158.028 143.897)" fill="#D9D9D9"/>
<rect x="154.948" y="141.621" width="4" height="9.42181" transform="rotate(126.627 154.948 141.621)" fill="#D9D9D9"/>
<path d="M156.788 133.78L158.095 130L167 133.079L165.693 136.859L156.788 133.78Z" fill="#D9D9D9"/>
<path d="M163.453 134.848L167 133L171.353 141.356L167.806 143.204L163.453 134.848Z" fill="#D9D9D9"/>
<path d="M163.453 134.848L167 133L171.353 141.356L167.806 143.204L163.453 134.848Z" fill="#D9D9D9"/>
<rect x="137.077" y="146.389" width="4" height="6.23811" transform="rotate(-105.622 137.077 146.389)" fill="#D9D9D9"/>
<rect x="167.929" y="201.72" width="4" height="9.42181" transform="rotate(-117.942 167.929 201.72)" fill="#D9D9D9"/>
<path d="M173.896 187.223L168.859 185.253L166.95 188.229C168.629 188.886 172.084 190.178 172.475 190.093C172.964 189.986 174.474 192.215 174.963 192.108C175.353 192.023 178.169 190.385 179.527 189.576L173.896 187.223Z" fill="#D6D6D6"/>
<rect x="177.058" y="196.655" width="4" height="6.23811" transform="rotate(-117.942 177.058 196.655)" fill="#D9D9D9"/>
<rect x="177.406" y="105.052" width="4" height="9.42181" transform="rotate(-128.499 177.406 105.052)" fill="#D9D9D9"/>
<rect x="147" y="95.9438" width="4" height="9.42181" transform="rotate(-80.3804 147 95.9438)" fill="#D9D9D9"/>
<rect x="161" y="99.9438" width="4" height="9.42181" transform="rotate(-80.3804 161 99.9438)" fill="#D9D9D9"/>
<path d="M180.616 89.7078L175.303 88.6932L173.972 91.9685C175.743 92.3067 179.376 92.9442 179.745 92.7887C180.206 92.5943 182.099 94.5089 182.559 94.3145C182.928 94.159 185.395 92.0325 186.583 90.9887L180.616 89.7078Z" fill="#D6D6D6"/>
<rect x="185.453" y="98.4006" width="4" height="6.23811" transform="rotate(-128.499 185.453 98.4006)" fill="#D9D9D9"/>
<rect x="129" y="126.417" width="4" height="9.42181" transform="rotate(-50.1288 129 126.417)" fill="#D9D9D9"/>
<rect x="133.029" y="103" width="2.91574" height="9.42181" transform="rotate(25.3179 133.029 103)" fill="#D9D9D9"/>
<rect x="127.042" y="114" width="2.91574" height="4.77501" transform="rotate(25.3179 127.042 114)" fill="#D9D9D9"/>
<path d="M144.676 126.468L144.599 121.06L141.123 120.416C141.149 122.219 141.257 125.906 141.483 126.236C141.767 126.648 140.273 128.888 140.556 129.3C140.783 129.63 143.363 131.618 144.625 132.571L144.676 126.468Z" fill="#D6D6D6"/>
<rect x="137.137" y="132.958" width="4" height="6.23811" transform="rotate(-50.1288 137.137 132.958)" fill="#D9D9D9"/>
<rect x="148.5" y="199.5" width="14" height="6" fill="#D9D9D9" stroke="#BCBABA"/>
<path d="M238 136.264L221.714 133L219 156.143L228.5 160L238 136.264Z" fill="#D9D9D9"/>
<path d="M49.0458 165.707L46.8564 183.688L59.4187 186.978L61.7619 176.513L49.0458 165.707Z" fill="#D9D9D9"/>
<path d="M180.298 74.8868L180.38 57.3916L169.777 51.3523L165.325 64.7396L180.298 74.8868Z" fill="#D9D9D9"/>
<path d="M143 140C143.4 139.2 146.667 134.167 148 132L158 128.5L169.5 133L174.5 139.5L178.5 148L166.5 153H152" stroke="#828282"/>
<path d="M157.5 128.5L161.5 110.5L178.5 107L195 93.5L212.5 89L226 79.5" stroke="#828282"/>
<path d="M178 148L197 157L202.5 162.5L229.5 171L246 159.5L265 154.5" stroke="#828282"/>
<path d="M157.5 191C153.5 194.167 145.5 200.6 145.5 201C145.5 201.5 141.5 215 141.5 216.5C141.5 217.7 148.833 230 152.5 236L144 251" stroke="#828282"/>
<path d="M103 42.5L110.5 70L124 73.5L120.5 84.5L128.5 93.5" stroke="#828282"/>
<path d="M117.5 148.5L123.5 141L127 144L124.5 145L125.5 150L121 151.5L117.5 148.5Z" fill="#D6D6D6"/>
<path d="M191.629 106.333L199.069 100.259L201.862 103.926L199.208 104.38L199.137 109.478L194.422 110.001L191.629 106.333Z" fill="#D6D6D6"/>
<path d="M122 74.5L109.5 71.5L108.5 77L115.5 78.5L114 83.5L119 84.5L122 74.5Z" fill="#D9D9D9"/>
<defs>
<filter id="filter0_d_0_1" x="0" y="0" width="298" height="298" filterUnits="userSpaceOnUse" color-interpolation-filters="sRGB">
<feFlood flood-opacity="0" result="BackgroundImageFix"/>
<feColorMatrix in="SourceAlpha" type="matrix" values="0 0 0 0 0 0 0 0 0 0 0 0 0 0 0 0 0 0 127 0" result="hardAlpha"/>
<feOffset dy="4"/>
<feGaussianBlur stdDeviation="2"/>
<feComposite in2="hardAlpha" operator="out"/>
<feColorMatrix type="matrix" values="0 0 0 0 0 0 0 0 0 0 0 0 0 0 0 0 0 0 0.25 0"/>
<feBlend mode="normal" in2="BackgroundImageFix" result="effect1_dropShadow_0_1"/>
<feBlend mode="normal" in="SourceGraphic" in2="effect1_dropShadow_0_1" result="shape"/>
</filter>
<radialGradient id="paint0_radial_0_1" cx="0" cy="0" r="1" gradientUnits="userSpaceOnUse" gradientTransform="translate(149 145) rotate(90) scale(145)">
<stop offset="0.828125" stop-color="#9B9797" stop-opacity="0.72"/>
<stop offset="1" stop-color="#9B9797" stop-opacity="0.33"/>
</radialGradient>
</defs>
</svg>
