<svg width="120" height="129" viewBox="0 0 120 129" fill="none" xmlns="http://www.w3.org/2000/svg">
<rect y="117" width="119" height="12" fill="black"/>
<path d="M27.5 121.5L54 46.5H63.5L89.5 121.5" stroke="black" stroke-width="5"/>
<circle cx="59" cy="38" r="7.5" stroke="black" stroke-width="5"/>
<circle cx="9" cy="61" r="4.5" stroke="black" stroke-width="5"/>
<rect x="12.4447" y="62.2717" width="6.35413" height="46.4038" transform="rotate(-116.322 12.4447 62.2717)" fill="black"/>
<rect x="115.652" y="121.084" width="2.0132" height="91.0711" transform="rotate(-179.537 115.652 121.084)" fill="black"/>
<rect x="5.40814" y="118.239" width="2.0132" height="42.2241" transform="rotate(-179.537 5.40814 118.239)" fill="black"/>
<rect x="14.0131" y="118.239" width="2.0132" height="42.2241" transform="rotate(-179.537 14.0131 118.239)" fill="black"/>
<rect x="10.3954" y="76.0953" width="2.0132" height="10.0793" transform="rotate(-179.537 10.3954 76.0953)" fill="black"/>
<rect x="5" y="78.0132" width="2.0132" height="9.07498" transform="rotate(-89.7753 5 78.0132)" fill="black"/>
<rect x="31.6315" y="118.401" width="2.0132" height="63.9137" transform="rotate(-144.134 31.6315 118.401)" fill="black"/>
<rect x="0.11225" y="-0.69814" width="1.0132" height="62.9137" transform="matrix(0.810391 -0.58589 -0.58589 -0.810391 84.0587 116.776)" fill="black" stroke="black"/>
<path d="M98.5 22.5L92.5 12L95 4.5L102 1L109.5 2L117 14L119 29.5L112.5 32.5L98.5 22.5Z" fill="black" stroke="black"/>
<rect x="66.8176" y="35.9842" width="6.35413" height="34.4794" transform="rotate(-116.322 66.8176 35.9842)" fill="black"/>
</svg>
